# xmcd
#
# Track frame offsets:
#	150
#	19203
#	32198
#	53887
#	68550
#	81892
#	94620
#	110445
#	129626
#	143063
#	155684
#	170549
#	184146
#	198090
#	211169
#	230317
#	241878
#	254439
#	266244
#	278291
#
# Disc length: 3884 seconds
#
# Revision: 0
# Processed by: cddbd v1.5.1PL2 Copyright (c) Steve Scherf et al.
# Submitted via: dBpowerAMP V4.0
#
DISCID=130f2a14
DTITLE=Louis Armstrong - 40 Best Original Hits CD2
DYEAR=1900
DGENRE=
TTITLE0=Basin Street Blues
TTITLE1=Endie
TTITLE2=That's my desire
TTITLE3=The frim fram sauce
TTITLE4=Whatta ya gonna do ?
TTITLE5=Cherry
TTITLE6=Sugar
TTITLE7=Back o'town blues
TTITLE8=The blues are brewin'
TTITLE9=Darling nellie grey
TTITLE10=Lovely weather we're having
TTITLE11=Fifty-Fifty Blues
TTITLE12=Do you know what it means to miss new orleans?
TTITLE13=You won't be satisfied until you break my heart
TTITLE14=Snafu
TTITLE15=Bye and Bye
TTITLE16=I never knew
TTITLE17=Coquete
TTITLE18=Jeepers Creepers
TTITLE19=Long, long ago
EXTD=
EXTT0=
EXTT1=
EXTT2=
EXTT3=
EXTT4=
EXTT5=
EXTT6=
EXTT7=
EXTT8=
EXTT9=
EXTT10=
EXTT11=
EXTT12=
EXTT13=
EXTT14=
EXTT15=
EXTT16=
EXTT17=
EXTT18=
EXTT19=
PLAYORDER=
